<?xml version="1.0" encoding="utf-8"?>
<!-- Generator: Adobe Illustrator 16.0.0, SVG Export Plug-In . SVG Version: 6.00 Build 0)  -->
<!DOCTYPE svg PUBLIC "-//W3C//DTD SVG 1.1//EN" "http://www.w3.org/Graphics/SVG/1.1/DTD/svg11.dtd">
<svg version="1.1" id="Layer_1" xmlns="http://www.w3.org/2000/svg" xmlns:xlink="http://www.w3.org/1999/xlink" x="0px" y="0px"
	 width="200px" height="200px" viewBox="0 0 200 200" enable-background="new 0 0 200 200" xml:space="preserve">
<g>
	<path fill="#144C5B" d="M79.133,122.562c-2.895,0.967-9.303-1.034-13.954-0.775c-3.281,0.183-11.329-0.748-12.663-0.775
		c-1.334-0.028-5.841-6.42-5.943-7.752c-0.258-3.36,4.14-6.277,6.978-8.012c4.651-2.842,11.015-0.612,15.246-1.551
		c4.229-0.938,10.839-2.989,21.456-6.85c10.615-3.863,19.885-3.977,25.717-1.366c7.607,3.405,9.633,0.621,11.041-0.711
		c3.121-2.953,12.802-2.358,15.045,6.129c2.244,8.487-1.871,14.704-6.951,18.991c-5.082,4.287-20.771,8.717-30.904,10.166
		S79.133,122.562,79.133,122.562z"/>
	<path fill="#FAC464" d="M141.401,98.77c0,0,9.026,2.328,12.15,8.062c0,0-2.271-0.398-4.116,0.426
		c-1.846,0.823-7.493,3.804-9.055,2.867c-1.561-0.937-2.017-1.789-1.221-3.435C139.955,105.044,142.85,103.113,141.401,98.77z"/>
	<path fill="#006269" d="M114.916,92.396c-16.64-24.69-41.515-17.013-41.515-17.013c3.58,30.75,15.717,37.748,28.92,41.98
		c13.202,4.236,18.766-6.373,17.516-11.635C118.075,98.311,116.609,95.127,114.916,92.396z"/>
	<circle fill="#FFFFFF" cx="133.625" cy="100.957" r="4.056"/>
	<circle fill="#1C1C1B" cx="133.625" cy="100.957" r="2.068"/>
</g>
</svg>
