<?xml version="1.0" encoding="utf-8"?>
<!-- Generator: Adobe Illustrator 16.0.0, SVG Export Plug-In . SVG Version: 6.00 Build 0)  -->
<!DOCTYPE svg PUBLIC "-//W3C//DTD SVG 1.1//EN" "http://www.w3.org/Graphics/SVG/1.1/DTD/svg11.dtd">
<svg version="1.1" id="Layer_1" xmlns="http://www.w3.org/2000/svg" xmlns:xlink="http://www.w3.org/1999/xlink" x="0px" y="0px"
	 width="200px" height="200px" viewBox="0 0 200 200" enable-background="new 0 0 200 200" xml:space="preserve">
<g>
	<path fill="#FFFFFF" d="M96.84,120.514c0,0,3.702,1.891,6.712,1.928c3.007,0.04,4.126,0.271,4.126,0.271s-2.392,1.119-2.431,3.587
		c-0.021,1.354,0.154,2.083,0.387,2.044c0.23-0.038,0.377-2.077,1.349-3.162c0.657-0.733,2.045-1.929,4.744-1.658
		c2.7,0.27,4.668,1.04,5.4,2.468s0.386,2.816,0.849,2.854c0.463,0.039,0.926-1.619,0.694-2.776
		c-0.231-1.156-1.852-4.204-6.017-4.396c-4.166-0.193-6.75-0.964-8.293-3.279L96.84,120.514z"/>
	<path fill="#CC6E51" d="M82.134,119.944c0,0,2.593,3.127,11.158,2.119c8.565-1.008,12.991-1.335,20.044-5.198
		s9.978-6.018,12.584-9.027c2.207-2.547,5.1-10.207,5.604-12.223c0.503-2.016,0.078-5.351,2.094-8.206
		c2.014-2.855,5.092-6.453,4.227-9.65c-2.208-8.148-9.081-8.443-13.111-7.098c-4.031,1.343-8.038,8.92-10.221,11.775
		c-2.184,2.855-7.654,3.774-12.484,6.046C90.608,93.856,79.858,98.894,82.134,119.944z"/>
	<path fill="#CC6E51" d="M83.111,120.781c0,0-5.009-5.879-25.571-4.028c-4.247,0.383-4.702-5.934-3.583-8.062
		c1.119-2.126,5.038-4.702,5.038-4.702s1.679-1.007,4.813-1.231c3.137-0.225,6.496,0.56,8.846,0.112
		c2.352-0.449,12.205-0.449,12.205-0.449L83.111,120.781z"/>
	<path fill="#D17B61" d="M117.424,80.812c-0.791-0.166-10.639-1.119-21.611,4.591c-10.972,5.71-19.145,13.436-22.504,18.474
		c-3.36,5.038-5.375,10.188-5.375,10.188s9.629,2.688,27.096-1.008c17.466-3.694,26.311-10.747,26.311-23.287
		C121.102,82.531,118.385,81.015,117.424,80.812z"/>
	<path fill="#FFD11F" d="M137.592,77.053c0,0,6.328-0.188,8.306,5.738c0,0,0.11,0.432-0.363,0.387
		c-0.474-0.045-0.663-0.315-0.912-0.202c-0.249,0.112-2.735,1.718-4.342,1.758c-3.368,0.081-5.31,0.787-5.31,0.787
		s0.762-1.554-0.637-1.983c0,0,2.553-1.089,3.242-3.032C138.347,78.338,137.592,77.053,137.592,77.053z"/>
	<circle fill="#FFFFFF" cx="131.328" cy="76.824" r="3.341"/>
	<circle fill="#1C1C1B" cx="131.326" cy="76.824" r="1.9"/>
</g>
</svg>
