<?xml version="1.0" encoding="utf-8"?>
<!-- Generator: Adobe Illustrator 16.0.0, SVG Export Plug-In . SVG Version: 6.00 Build 0)  -->
<!DOCTYPE svg PUBLIC "-//W3C//DTD SVG 1.1//EN" "http://www.w3.org/Graphics/SVG/1.1/DTD/svg11.dtd">
<svg version="1.1" id="Layer_1" xmlns="http://www.w3.org/2000/svg" xmlns:xlink="http://www.w3.org/1999/xlink" x="0px" y="0px"
	 width="200px" height="200px" viewBox="0 0 200 200" enable-background="new 0 0 200 200" xml:space="preserve">
<g>
	<path fill="#FFFFFF" d="M99.652,108.652l10.009,13.202c0,0,0.821,1.24,2.724,1.335c1.898,0.094,4.828,0.952,6.365,2.659
		c0.871,0.968,0.959,2.036,0.785,2.174c-0.432,0.345-0.863-0.941-2.392-1.852c-1.013-0.603-2.719-1.555-5.927-0.97
		c-3.207,0.585-4.309,0.819-6.48,2.806c-0.969,0.886-1.47,1.455-1.754,1.282c-0.285-0.17-0.414-2.094,0.627-3.105
		c1.041-1.013,2.952-1.569,3.193-2.152c0.242-0.586,0.186-0.886-1.098-2.782c-1.283-1.896-5.345-8.675-10-12.873L99.652,108.652z"/>
	<path fill="#FFFFFF" d="M97.442,108.45c0,0-2.819,5.305-4.062,7.579c-1.244,2.274-2.092,4.086-1.517,4.244
		c0.375,0.104,1.513,0.255,2.334,0.728c0.748,0.431,2.152,1.91,2.577,2.579c0.425,0.665,0.576,1.152,0.395,1.303
		c-0.183,0.152-0.758,0.03-1.516-0.575c-0.758-0.607-1.426-1.819-3.882-2.457c-2.456-0.638-5.623-1.246-7.654,0.634
		c-2.032,1.879-1.744,2.581-2.2,2.398c-0.454-0.181-0.303-1.977,0.912-3.28c1.212-1.303,3.063-1.712,4.64-1.956
		c1.575-0.242,1.545-0.798,2.362-2.798c0.82-2.002,3.276-6.884,3.73-8.611L97.442,108.45z"/>
	<path fill="#C38132" d="M60.119,85.408c8.402,0,17.453,0.119,24.273,2.935c2.719-2.59,5.959-4.733,9.682-5.565
		c12.37-2.764,18.556-1.579,18.556-1.579s5.336-8.629,8.949-10.134c4.738-1.974,15.529-0.526,16.45,6.187
		s-2.763,15.134-10.133,22.504c-7.37,7.369-14.761,11.633-32.506,9.475c-14.16-1.724-20.025-5.867-20.721-6.391
		c-3.638,0.349-9.792,0.718-12.312-0.453c-3.684-1.711-10.659-8.292-11.186-11.318C50.644,88.042,50.906,85.408,60.119,85.408z"/>
	<path fill="#DC9027" d="M119.078,84.356c0,0-7.289-6.685-21.715-3.553c-16.977,3.684-30.006,15.791-30.006,15.791
		s8.291,3.817,24.872-1.974c0,0,14.478,6.713,25.664-0.79C123.406,89.595,121.297,86.254,119.078,84.356z"/>
	<path fill="#E7BF00" d="M134.939,72.6c0,0,9.932,2.939,13.617,7.941c0,0-4.475,2.501-8.817,3.026
		c-4.343,0.524-7.237,1.711-7.237,1.711s-2.764-3.947,0.132-5.526C135.529,78.172,137.703,76.021,134.939,72.6z"/>
	<circle fill="#FFFFFF" cx="128.572" cy="76.477" r="3.846"/>
	<circle fill="#1C1C1B" cx="128.573" cy="76.477" r="1.681"/>
</g>
</svg>
