<?xml version="1.0" encoding="utf-8"?>
<!-- Generator: Adobe Illustrator 16.0.0, SVG Export Plug-In . SVG Version: 6.00 Build 0)  -->
<!DOCTYPE svg PUBLIC "-//W3C//DTD SVG 1.1//EN" "http://www.w3.org/Graphics/SVG/1.1/DTD/svg11.dtd">
<svg version="1.1" id="Layer_1" xmlns="http://www.w3.org/2000/svg" xmlns:xlink="http://www.w3.org/1999/xlink" x="0px" y="0px"
	 width="200px" height="200px" viewBox="0 0 200 200" enable-background="new 0 0 200 200" xml:space="preserve">
<g>
	<path fill="#FFFFFF" d="M106.467,114.346c0,0,16.186,2.365,17.51,2.65c1.326,0.283,3.218,2.178,2.745,3.975
		c-0.474,1.799-1.419,2.209-1.673,2.051c-0.253-0.158,1.356-1.137,0.915-2.398s-3.722-2.744-5.647-2.555
		c-1.925,0.189-4.449,0.537-5.016,2.082c-0.568,1.545,0.473,2.934,0.221,3.092c-0.253,0.158-3.566-2.619-0.442-5.143
		c0,0-12.368-1.799-17.667-1.041L106.467,114.346z"/>
	<path fill="#2B75B8" d="M87.964,118.541c-1.984,2.318-6.784,6.785-8.937,9.27c-2.152,2.482-8.441,7.777-9.6,8.439
		s-7.613-0.826-8.939-0.992c-1.322-0.166-2.811-4.965-2.481-8.275c0.333-3.311,7.613-9.764,10.759-12.744
		c3.144-2.98,5.957-14.234,13.076-23.005c7.116-8.773,15.007-13.639,21.351-14.4c8.276-0.993,8.581-4.423,9.103-6.289
		c1.158-4.138,9.766-8.607,16.055-2.483c6.29,6.124,5.96,13.572,3.808,19.862s-10.759,19.199-18.704,25.654
		C105.509,120.031,87.964,118.541,87.964,118.541z"/>
	<path fill="#F9B500" d="M126.694,66.57c0,0,8.938-2.646,14.566,0.663c0,0-2.152,0.828-3.311,2.483
		c-1.159,1.656-4.47,7.117-6.29,7.117s-2.649-0.497-2.813-2.317C128.682,72.694,130.17,69.55,126.694,66.57z"/>
	<path fill="#447F9F" d="M95.579,82.459c-26.151,14.234-20.856,39.722-20.856,39.722c30.951-0.66,39.063-12.082,44.523-24.827
		c5.464-12.743-4.573-19.283-9.93-18.536C101.767,79.873,98.458,81.032,95.579,82.459z"/>
	<path fill="none" stroke="#000000" stroke-miterlimit="10" d="M125.738,72.439c0,0-5.307-0.995-7.959,0.663"/>
</g>
</svg>
