<?xml version="1.0" encoding="utf-8"?>
<!-- Generator: Adobe Illustrator 16.0.0, SVG Export Plug-In . SVG Version: 6.00 Build 0)  -->
<!DOCTYPE svg PUBLIC "-//W3C//DTD SVG 1.1//EN" "http://www.w3.org/Graphics/SVG/1.1/DTD/svg11.dtd">
<svg version="1.1" id="Layer_1" xmlns="http://www.w3.org/2000/svg" xmlns:xlink="http://www.w3.org/1999/xlink" x="0px" y="0px"
	 width="200px" height="200px" viewBox="0 0 200 200" enable-background="new 0 0 200 200" xml:space="preserve">
<g>
	<path fill="#FFFFFF" d="M92.279,114.579c0,0-16.186,2.366-17.51,2.65c-1.326,0.284-3.218,2.178-2.745,3.975
		c0.474,1.799,1.419,2.209,1.673,2.052c0.253-0.158-1.356-1.137-0.915-2.398s3.722-2.744,5.647-2.555
		c1.925,0.188,4.449,0.536,5.016,2.082c0.568,1.545-0.473,2.934-0.221,3.092c0.253,0.157,3.566-2.619,0.442-5.143
		c0,0,12.368-1.799,17.667-1.041L92.279,114.579z"/>
	<path fill="#C38132" d="M110.782,118.774c1.984,2.318,6.784,6.786,8.937,9.27c2.152,2.482,8.441,7.778,9.6,8.44
		s7.613-0.826,8.939-0.993c1.322-0.166,2.811-4.965,2.481-8.275c-0.333-3.311-7.613-9.764-10.759-12.744
		c-3.144-2.979-5.957-14.233-13.076-23.005c-7.116-8.773-15.007-13.639-21.351-14.4c-8.276-0.993-8.581-4.423-9.103-6.289
		c-1.158-4.138-9.766-8.607-16.055-2.483c-6.29,6.124-5.96,13.572-3.808,19.862s10.759,19.198,18.704,25.653
		C93.237,120.266,110.782,118.774,110.782,118.774z"/>
	<path fill="#E7BF00" d="M72.052,66.804c0,0-8.938-2.646-14.566,0.663c0,0,2.152,0.828,3.311,2.483
		c1.159,1.656,4.47,7.117,6.29,7.117s2.649-0.497,2.813-2.317C70.064,72.928,68.576,69.784,72.052,66.804z"/>
	<path fill="#DC9027" d="M103.167,82.693c26.151,14.234,20.856,39.723,20.856,39.723C93.072,121.755,84.96,110.334,79.5,97.589
		c-5.464-12.743,4.573-19.283,9.93-18.536C96.979,80.106,100.288,81.266,103.167,82.693z"/>
	<circle fill="#FFFFFF" cx="77.596" cy="72.68" r="4.056"/>
	<circle fill="#1C1C1B" cx="77.596" cy="72.68" r="2.068"/>
</g>
</svg>
