<?xml version="1.0" encoding="utf-8"?>
<!-- Generator: Adobe Illustrator 16.0.0, SVG Export Plug-In . SVG Version: 6.00 Build 0)  -->
<!DOCTYPE svg PUBLIC "-//W3C//DTD SVG 1.1//EN" "http://www.w3.org/Graphics/SVG/1.1/DTD/svg11.dtd">
<svg version="1.1" id="Layer_1" xmlns="http://www.w3.org/2000/svg" xmlns:xlink="http://www.w3.org/1999/xlink" x="0px" y="0px"
	 width="200px" height="200px" viewBox="0 0 200 200" enable-background="new 0 0 200 200" xml:space="preserve">
<g>
	<path fill="#FFFFFF" d="M82.51,107.635c0,0,3.056,3.697,6.752,5.949c3.698,2.25,9.593,6.161,11.522,9.858
		c0,0-4.325-1.058-7.278,1.09c-2.781,2.019-2.428,3.505-2.428,3.505s-0.035,0.914,0.255,1.059c0.288,0.146,1.17-1.722,3.188-2.463
		c0.627-0.23,2.826-1.377,7.172,0.58c2.839,1.277,3.912,4.637,3.405,6.158c-0.506,1.521-0.724,2.391-0.361,2.536
		c0.361,0.146,2.971-2.392,2.607-5.651s-2.102-7.897-5.795-11.086c-3.697-3.188-9.928-7.173-11.449-11.013L82.51,107.635z"/>
	<path fill="#FFFFFF" d="M105.316,105.693c0,0-2.248,1.957-2.248,4.854c0,2.899,0.725,3.188,1.161,3.116
		c0.435-0.073-0.29-4.928,3.913-5.362c4.201-0.435,5.869,2.174,6.23,3.695c0.362,1.521,0.578,2.028,0.94,2.028
		s3.333-7.535-3.912-9.636c0,0-1.521,0.217-2.606-2.681c-1.088-2.898-2.61-6.304-2.61-6.304l-2.681,0.145
		C103.504,95.55,107.924,104.462,105.316,105.693z"/>
	<path fill="#3B2CEA" d="M142.556,73.862c0.53-3.833-2.897-9.467-10.046-10.434c-7.148-0.966-16.616,2.319-21.641,8.502
		c0,0-11.275,2.357-17.883,3.962c-6.429,1.562-20.178,7.823-23.849,9.176c-3.672,1.353-6.57,2.319-10.048,1.932
		c-3.478-0.386-9.08-0.58-10.434-0.193c-1.352,0.386-5.024,3.67-4.251,7.535c0.774,3.865,5.991,6.763,7.729,7.15
		c1.739,0.385,1.783,0.58,4.042-0.218c3.457-1.22,11.028-4.034,12.767-3.84c1.739,0.193,3.285,0.965,5.604,4.058
		c2.317,3.09,6.183,9.659,18.163,7.92c11.978-1.738,27.435-5.796,32.845-12.172C130.964,90.864,141.785,79.465,142.556,73.862z"/>
	<path fill="#FFD73F" d="M140.824,67.919c0,0-1.063,4.519-2.392,5.582s-0.132,4.385,1.728,5.449c0,0,3.189,0.531,6.245-0.798
		c3.058-1.328,6.38-3.853,7.841-3.588c1.463,0.266,1.618,0.868,2.101,0.505c0.483-0.362-1.813-4.478-4.297-5.796
		C148.908,67.606,144.9,66.979,140.824,67.919z"/>
	<path fill="#1A5DE9" d="M114.25,71.64c0,0-16.567,0.981-29.249,4.317c-12.681,3.337-20.503,14.037-20.503,14.037
		s-2.115,2.624-1.546,3.478c0.571,0.855,4.492,1.727,12.279,4.196c7.787,2.469,14.095,5.464,30.711,0.924
		c16.616-4.541,16.036-16.906,16.036-16.906C121.484,75.909,122.102,71.47,114.25,71.64z"/>
	<circle fill="#FFFFFF" cx="131.047" cy="69.813" r="3.854"/>
	<circle fill="#1C1C1B" cx="131.047" cy="69.813" r="2.312"/>
</g>
</svg>
