<?xml version="1.0" encoding="utf-8"?>
<!-- Generator: Adobe Illustrator 16.0.0, SVG Export Plug-In . SVG Version: 6.00 Build 0)  -->
<!DOCTYPE svg PUBLIC "-//W3C//DTD SVG 1.1//EN" "http://www.w3.org/Graphics/SVG/1.1/DTD/svg11.dtd">
<svg version="1.1" id="Layer_1" xmlns="http://www.w3.org/2000/svg" xmlns:xlink="http://www.w3.org/1999/xlink" x="0px" y="0px"
	 width="200px" height="200px" viewBox="0 0 200 200" enable-background="new 0 0 200 200" xml:space="preserve">
<g>
	<path fill="#FFFFFF" d="M99.994,109.062l-10.009,13.203c0,0-0.821,1.24-2.724,1.334c-1.898,0.096-4.828,0.952-6.365,2.661
		c-0.87,0.968-0.959,2.035-0.784,2.175c0.432,0.344,0.862-0.942,2.391-1.854c1.014-0.604,2.72-1.555,5.927-0.97
		s4.309,0.819,6.48,2.806c0.968,0.885,1.47,1.454,1.755,1.283c0.284-0.172,0.413-2.096-0.628-3.107
		c-1.041-1.013-2.951-1.568-3.193-2.152s-0.186-0.885,1.099-2.78c1.282-1.896,5.345-8.675,9.999-12.875L99.994,109.062z"/>
	<path fill="#FFFFFF" d="M102.205,108.86c0,0,2.818,5.306,4.062,7.58s2.093,4.087,1.517,4.245c-0.375,0.104-1.514,0.254-2.335,0.728
		c-0.747,0.431-2.152,1.91-2.577,2.577s-0.575,1.152-0.395,1.304c0.182,0.151,0.758,0.03,1.516-0.576
		c0.759-0.606,1.426-1.818,3.883-2.456c2.456-0.637,5.623-1.248,7.654,0.633c2.031,1.88,1.743,2.582,2.199,2.399
		c0.455-0.183,0.304-1.977-0.911-3.28c-1.211-1.304-3.062-1.713-4.64-1.955c-1.575-0.242-1.545-0.798-2.362-2.799
		c-0.819-2.002-3.276-6.884-3.73-8.611L102.205,108.86z"/>
	<path fill="#144C5B" d="M139.528,85.821c-8.402,0-17.453,0.118-24.272,2.933c-2.72-2.588-5.96-4.734-9.683-5.565
		c-12.369-2.764-18.556-1.58-18.556-1.58s-5.336-8.629-8.948-10.134c-4.738-1.974-15.53-0.526-16.451,6.186
		c-0.922,6.712,2.763,15.134,10.134,22.504c7.37,7.37,14.761,11.635,32.506,9.475c14.16-1.724,20.025-5.867,20.721-6.393
		c3.639,0.351,9.792,0.72,12.312-0.45c3.685-1.711,10.659-8.292,11.187-11.318C149.003,88.453,148.74,85.821,139.528,85.821z"/>
	<path fill="#006269" d="M80.568,84.768c0,0,7.289-6.685,21.716-3.553c16.977,3.685,30.005,15.792,30.005,15.792
		s-8.29,3.817-24.872-1.974c0,0-14.478,6.711-25.664-0.79C76.24,90.006,78.35,86.667,80.568,84.768z"/>
	<path fill="#FAC464" d="M64.708,73.01c0,0-9.933,2.941-13.618,7.942c0,0,4.475,2.5,8.817,3.026
		c4.343,0.526,7.238,1.711,7.238,1.711s2.764-3.949-0.132-5.527C64.117,78.583,61.943,76.432,64.708,73.01z"/>
	<circle fill="#FFFFFF" cx="71.075" cy="76.889" r="3.846"/>
	<circle fill="#1C1C1B" cx="71.074" cy="76.889" r="1.681"/>
</g>
</svg>
