<?xml version="1.0" encoding="utf-8"?>
<!-- Generator: Adobe Illustrator 16.0.0, SVG Export Plug-In . SVG Version: 6.00 Build 0)  -->
<!DOCTYPE svg PUBLIC "-//W3C//DTD SVG 1.1//EN" "http://www.w3.org/Graphics/SVG/1.1/DTD/svg11.dtd">
<svg version="1.1" id="Layer_1" xmlns="http://www.w3.org/2000/svg" xmlns:xlink="http://www.w3.org/1999/xlink" x="0px" y="0px"
	 width="200px" height="200px" viewBox="0 0 200 200" enable-background="new 0 0 200 200" xml:space="preserve">
<g>
	<path fill="#FFFFFF" d="M111.107,109.53c0,0,1.859-1.494,5.439-0.307c3.576,1.188,9.855,4.104,12.969,4.182
		c2.831,0.072,4.58-1.705,4.766-4.502c0.18-2.795-0.786-2.123-0.786-2.123s-0.103,3.5-2.068,4.486
		c-1.79,0.896-7.13-0.462-7.693-3.628c-0.341-1.921,1.524-3.344,0.852-3.567c-0.669-0.222-3.758,2.725-2.451,4.771
		c0,0-10.662-5.274-12.71-4.713c-2.05,0.561-4.133,3.095-4.133,3.095L111.107,109.53z"/>
	<path fill="#2B75B8" d="M157.012,70.904c-4.67,1.784-9.035,4.563-13.371,7.017c-2.211,1.251-4.414,2.517-6.632,3.751
		c-2.242,1.248-4.359,0.223-6.428-0.133c-2.001-1.362-4.027-2.705-6.078-3.687c-5.29-2.53-16.108-4.691-20.927-5.02
		c-8.899-0.608-18.007,1.103-22.052,1.701c-4.043,0.598-10.132-0.812-13.577-2.682c-6.126-3.319-15.388,1.198-18.394,4.288
		c-3.008,3.089,1.747,9.794,5.114,13.655c3.361,3.856,14.427,19.995,43.03,21.165c8.79,0.359,17.274-2.098,25.118-5.925
		c2.481-1.211,4.582-2.637,6.714-4.11c0.735-0.249,1.511-0.703,2.332-1.289c1.824-1.301,4.006-2.204,5.747-3.6
		c1.709-1.369,3.069-3.247,4.702-4.726c1.601-1.449,3.919-2.61,5.856-3.541c5.283-2.542,14.613-4.229,14.994-8.33
		C163.54,75.338,161.756,69.092,157.012,70.904z"/>
	<path fill="#447F9F" d="M79.633,93.906c0,0,1.492,7.912,19.348,23.263c10.406,8.946,36.838,13.482,37.438,11.739
		c0.596-1.739-5.478-12.662-19.106-31.953C103.68,77.666,89.441,83.27,89.441,83.27s-6.391-2.402-9.988,1.162
		C75.854,87.996,78.938,92.27,79.633,93.906z"/>
	<path fill="#F9B500" d="M35.707,79.747c0,0,4.214-4.752,14.991-4.034c0,0-1.963,1.667-0.465,3.742
		c1.496,2.075,2.848,5.599,0.883,6.527c0,0-2.116-2.645-3.479-2.479C46.274,83.67,41.059,82.462,35.707,79.747z"/>
	<circle fill="#FFFFFF" cx="58.08" cy="79.785" r="3.388"/>
	<path fill="#1C1C1B" d="M59.806,79.228c0.308,0.953-0.215,1.975-1.169,2.282s-1.977-0.214-2.284-1.168
		c-0.309-0.956,0.215-1.978,1.17-2.285C58.477,77.748,59.497,78.271,59.806,79.228z"/>
</g>
</svg>
